HIERARCHY
ROOT pelvis
{
  OFFSET 0 100 0
  CHANNELS 6 Xposition Yposition Zposition Zrotation Xrotation Yrotation
  JOINT pelvis_right_femur
  {
    OFFSET -10.78128 -3.44521 -0.5502486
    CHANNELS 3 Zrotation Xrotation Yrotation
    JOINT right_femur_tibia
    {
      OFFSET -0.8047443 -44.0398 -0.1307829
      CHANNELS 3 Zrotation Xrotation Yrotation
      JOINT right_tibia_foot
      {
        OFFSET 3.006224 -47.83518 -5
        CHANNELS 3 Zrotation Xrotation Yrotation
        End Site
        {
          OFFSET 0 -5 15
        }
      }
    }
  }
  JOINT pelvis_left_femur
  {
    OFFSET 10.78128 -3.44521 -0.5502486
    CHANNELS 3 Zrotation Xrotation Yrotation
    JOINT left_femur_tibia
    {
      OFFSET 0.8047443 -44.0398 -0.1307829
      CHANNELS 3 Zrotation Xrotation Yrotation
      JOINT left_tibia_foot
      {
        OFFSET -4.370144 -48.10324 -4.275266
        CHANNELS 3 Zrotation Xrotation Yrotation
        End Site
        {
          OFFSET 0 -5 15
        }
      }
    }
  }
  JOINT pelvis_spine1
  {
    OFFSET 0 6.468898 -3.129235
    CHANNELS 3 Zrotation Xrotation Yrotation
    JOINT spine1
    {
      OFFSET 0 23.15396 4.99043
      CHANNELS 3 Zrotation Xrotation Yrotation
      JOINT spine2
      {
        OFFSET 0 20.79997 -5.064912
        CHANNELS 3 Zrotation Xrotation Yrotation
        JOINT neck
        {
          OFFSET 0 14.38658 9.616178
          CHANNELS 3 Zrotation Xrotation Yrotation
          End Site
          {
            OFFSET 0 20 0
          }
        }
      }
      JOINT right_manubrium
      {
        OFFSET -5.722621 16.35077 3.967754
        CHANNELS 3 Zrotation Xrotation Yrotation
        JOINT right_clavicle
        {
          OFFSET -13.16364 1.694482 -4.693211
          CHANNELS 3 Zrotation Xrotation Yrotation
          JOINT right_humerus
          {
            OFFSET -28.5034 -0.3100689 -2.792744
            CHANNELS 3 Zrotation Xrotation Yrotation
            JOINT right_radius
            {
              OFFSET -25.15693 0.02248979 -1.271978
              CHANNELS 3 Zrotation Xrotation Yrotation
              End Site
              {
                OFFSET -15 0 0
              }
            }
          }
        }
      }
      JOINT left_manubrium
      {
        OFFSET 5.722621 16.35077 3.967754
        CHANNELS 3 Zrotation Xrotation Yrotation
        JOINT left_clavicle
        {
          OFFSET 13.16364 1.694482 -4.693211
          CHANNELS 3 Zrotation Xrotation Yrotation
          JOINT left_humerus
          {
            OFFSET 29.39168 -1.063119 -2.237045
            CHANNELS 3 Zrotation Xrotation Yrotation
            JOINT left_radius
            {
              OFFSET 24.59957 -0.9528479 0.9047498
              CHANNELS 3 Zrotation Xrotation Yrotation
              End Site
              {
                OFFSET 15 -0 -0
              }
            }
          }
        }
      }
    }
  }
}
MOTION
Frames: 15
Frame Time: 0.0416666666667
-1405.778 107.042 2056.614 -6.346303 -0.3113626 -79.72739 7.775139 -4.746418 0.3416335 -0 12.27218 -0 -13.24654 -1.822317 -0.870799 -1.302991 -6.752598 -5.905365 -0 57.9107 -0 0.3112629 -3.233899 13.76793 -1.361778 -2.894491 6.224563 1.157051 13.22311 -7.020537 0.3171731 20.43134 6.326733 5.565516 -20.415 5.308686 4.932822 -20.89369 12.22777 85.59841 29.58327 -18.89365 -0 0 18.20435 -12.65424 7.011123 3.321944 8.483058 -24.93144 -5.779594 -91.25774 10.77479 20.19605 0 0 -15.25171 19.92648 10.81595 -12.68765
-1410.735 107.6327 2057.524 -6.820964 -0.5496396 -80.55354 7.584262 -0.5386388 0.0241789 -0 9.492447 -0 -12.49686 -4.576657 -0.6876394 -0.1401251 -12.48374 -4.468357 -0 53.08997 -0 1.074568 -3.084517 14.61394 -1.323178 -2.859147 6.282838 1.109849 13.26704 -6.861416 0.2582953 20.57967 6.166909 5.616955 -20.18781 4.947118 4.977854 -21.25638 12.26059 85.12929 29.17877 -18.01318 -0 0 18.84777 -12.9567 6.920897 3.790507 8.148122 -24.67304 -5.856649 -92.24252 11.22017 21.70934 0 0 -12.93043 18.88131 11.45258 -11.38339
-1415.588 107.635 2058.532 -6.88373 -0.5706885 -81.34917 7.290796 3.422022 -0.3200871 -0 7.254866 -0 -11.86985 -7.688246 -0.5547065 1.172262 -17.17947 -3.267327 -0 44.7019 -0 2.030784 -2.981371 15.31574 -1.29208 -2.809987 6.350881 1.027555 13.28893 -6.656463 0.2206276 20.73902 6.004123 5.653947 -19.89199 4.608917 5.004836 -21.6136 12.28974 84.60033 28.79706 -16.9901 -0 0 19.54972 -13.37322 6.959595 4.323746 7.806761 -24.35857 -5.923149 -93.20212 11.62618 23.20074 0 0 -10.64295 17.79904 12.10814 -10.0516
-1420.424 107.1168 2059.652 -6.715467 -0.4265771 -82.0833 6.885933 7.216299 -0.4364088 -0 6.45916 -0 -11.40474 -11.02829 -0.6277603 2.377388 -20.45685 -2.612529 -0 34.84252 -0 2.702299 -2.731306 15.90182 -1.269741 -2.751824 6.424786 0.9177095 13.29139 -6.423015 0.2058318 20.89549 5.851016 5.673516 -19.55535 4.319624 5.009639 -21.94099 12.31398 84.05871 28.45879 -15.90925 -0 0 20.25226 -13.87539 7.11657 4.883681 7.485292 -24.01615 -5.974934 -94.05805 11.957 24.55484 0 0 -8.565619 16.77034 12.72411 -8.802392
-1425.323 106.2144 2060.872 -6.561058 -0.263024 -82.75914 6.309401 10.76358 -0.267932 -0 7.225867 -0 -10.99199 -14.04627 -0.9006205 3.181057 -22.19823 -2.606939 -0 25.48282 -0 2.831751 -2.43671 16.49047 -1.255399 -2.690438 6.49786 0.7921404 13.28332 -6.182596 0.2095171 21.0395 5.717499 5.678731 -19.20806 4.088639 4.992363 -22.22071 12.33385 83.55229 28.16857 -14.86046 -0 0 20.89494 -14.43043 7.356951 5.435237 7.203331 -23.68162 -6.015223 -94.75886 12.19061 25.69125 0 0 -6.80632 15.8712 13.2594 -7.724549
-1430.399 105.0847 2062.173 -6.609478 -0.2222733 -83.39691 5.529706 13.8904 0.03352157 -0 9.153136 -0 -10.55412 -15.91255 -1.185782 3.401868 -22.53738 -3.138051 -0 17.98466 -0 2.443598 -2.317663 17.18173 -1.246913 -2.631675 6.562983 0.6643564 13.27496 -5.956527 0.2243175 21.1652 5.609209 5.675327 -18.87837 3.913511 4.956723 -22.44362 12.35053 83.12031 27.92197 -13.92245 -0 0 21.43019 -14.99988 7.634919 5.947551 6.972033 -23.38797 -6.050304 -95.28435 12.32293 26.57231 0 0 -5.408366 15.14937 13.69304 -6.870405
-1435.777 103.8878 2063.548 -6.909003 -0.3603256 -84.01271 4.586793 16.45077 0.2644211 -0 11.83729 -0 -10.11639 -16.00695 -1.268755 3.034445 -21.79556 -4.000884 -0 12.87422 -0 1.734391 -2.516888 17.98214 -1.242128 -2.579951 6.614295 0.5463496 13.27311 -5.761366 0.2431444 21.27013 5.527933 5.668862 -18.58823 3.786403 4.908846 -22.60732 12.36486 82.78622 27.71414 -13.14936 -0 0 21.83062 -15.54444 7.908164 6.396321 6.794918 -23.15695 -6.085168 -95.6399 12.36647 27.19635 0 0 -4.36795 14.62109 14.02167 -6.253881
-1441.549 102.7877 2064.997 -7.380178 -0.6382846 -84.60299 3.566744 18.37508 0.3123225 -0 15.2194 -0 -9.803313 -14.21326 -1.049024 2.191729 -20.33511 -5.044045 -0 9.982594 -0 0.9391596 -3.01506 18.81248 -1.240172 -2.537058 6.647471 0.4464343 13.27901 -5.60652 0.2611231 21.35503 5.47361 5.663459 -18.35114 3.699757 4.855738 -22.71147 12.37683 82.55699 27.54554 -12.56714 -0 0 22.08486 -16.03219 8.146642 6.765956 6.670852 -22.99694 -6.1213 -95.84331 12.343 27.57944 0 0 -3.657662 14.28071 14.25273 -5.863573
-1447.729 101.9527 2066.516 -7.903145 -0.9771057 -85.1404 2.562737 19.59342 0.1516207 -0 19.53251 -0 -9.811126 -10.74552 -0.5254858 1.00476 -18.40407 -6.213327 -0 8.895239 -0 0.2756416 -3.685271 19.56075 -1.242265 -2.501849 6.658332 0.369234 13.28873 -5.495308 0.2759576 21.42342 5.447084 5.661884 -18.17396 3.650304 4.804026 -22.75151 12.38547 82.42959 27.42491 -12.18286 -0 0 22.18392 -16.44291 8.332866 7.04844 6.598386 -22.90719 -6.1566 -95.90896 12.27449 27.7315 0 0 -3.252259 14.11858 14.39579 -5.685032
-1454.245 101.5483 2068.096 -8.384762 -1.306301 -85.57692 1.66199 19.91604 -0.2269062 -0 25.04834 -0 -10.36494 -5.887087 0.2857602 -0.422264 -16.07744 -7.501324 -0 9.294732 -0 -0.05866232 -4.396487 20.11197 -1.251836 -2.470751 6.641225 0.3170226 13.29454 -5.42781 0.2874701 21.4808 5.451951 5.66603 -18.06045 3.640905 4.759413 -22.71453 12.3889 82.39916 27.37012 -11.99826 -0 0 22.1091 -16.76628 8.457699 7.239389 6.579221 -22.88369 -6.186212 -95.83713 12.17754 27.63954 0 0 -3.147499 14.1356 14.45626 -5.71798
-1460.92 101.716 2069.711 -8.742251 -1.562929 -85.84827 0.9433122 18.9905 -0.8135801 -0 31.83587 -0 -11.64449 -0.05820984 1.370004 -1.975496 -13.33938 -8.894732 -0 10.92284 -0 0.0653898 -5.086559 20.34056 -1.274029 -2.43877 6.588763 0.2908274 13.28594 -5.40304 0.2972987 21.53327 5.494512 5.676834 -18.01329 3.680677 4.726498 -22.57932 12.38429 82.46335 27.4071 -12.01745 -0 0 21.83027 -16.9971 8.51813 7.334303 6.619284 -22.92227 -6.203209 -95.61173 12.06228 27.26454 0 0 -3.367603 14.34699 14.43326 -5.980688
-1467.478 102.5226 2071.323 -8.851562 -1.671541 -85.88514 0.4599547 16.40319 -1.505149 -0 39.46514 -0 -13.6343 5.88859 2.632463 -3.469441 -10.23141 -10.35773 -0 13.30184 -0 0.5837783 -5.815487 20.11936 -1.314812 -2.400575 6.493161 0.2902574 13.2504 -5.419216 0.3092776 21.58581 5.582076 5.693194 -18.03286 3.784382 4.7081 -22.32037 12.36802 82.6221 27.56733 -12.24562 -0 0 21.31429 -17.13316 8.520885 7.327849 6.727596 -23.01802 -6.199064 -95.20319 11.93214 26.54868 0 0 -3.964656 14.77761 14.32079 -6.504442
-1473.593 103.8797 2072.876 -8.580573 -1.569319 -85.64478 0.2115747 11.96833 -2.077705 -0 46.62396 -0 -15.90228 10.61175 3.748064 -4.649846 -6.918568 -11.82304 -0 15.5541 -0 1.142067 -6.80319 19.42059 -1.379483 -2.351752 6.349148 0.3117901 13.17495 -5.472107 0.3302493 21.6404 5.719708 5.710242 -18.11228 3.970384 4.703424 -21.91569 12.33606 82.87421 27.88147 -12.67926 -0 0 20.54206 -17.17866 8.49161 7.217495 6.913006 -23.16256 -6.164957 -94.5753 11.78195 25.43164 0 0 -5.009588 15.45048 14.11163 -7.320359
-1479.047 105.4918 2074.311 -7.966898 -1.300148 -85.16168 0.1345939 6.107785 -2.324912 -0 51.12284 -0 -17.58427 12.8835 4.170921 -5.32316 -3.555789 -13.16136 -0 16.66236 -0 1.264016 -8.345393 18.48242 -1.469957 -2.290853 6.158918 0.3465029 13.05029 -5.552731 0.3698398 21.69394 5.905178 5.7186 -18.23084 4.253881 4.706032 -21.36098 12.28547 83.21102 28.36498 -13.29117 -0 0 19.53525 -17.15043 8.482454 7.00968 7.178208 -23.34133 -6.095376 -93.70252 11.59585 23.88423 0 0 -6.563729 16.36633 13.805 -8.435382
-1483.856 106.9325 2075.58 -7.31999 -1.06483 -84.56801 0.1309537 -0.1542525 -2.256859 -0 51.0346 -0 -17.9416 12.48375 3.576199 -5.524884 -0.1061809 -14.18341 -0 16.14672 -0 0.8504846 -10.54636 17.7906 -1.581075 -2.222382 5.937977 0.3805473 12.87836 -5.647745 0.4365823 21.73662 6.124129 5.707562 -18.35398 4.633191 4.704964 -20.6882 12.21711 83.60945 28.9969 -14.02198 -0 0 18.3827 -17.07627 8.560532 6.722178 7.512405 -23.53505 -5.993776 -92.6024 11.35116 21.96079 0 0 -8.622363 17.47837 13.41548 -9.801041
